<?xml version="1.0" standalone="no"?>
<!DOCTYPE svg PUBLIC "-//W3C//DTD SVG 20010904//EN"
 "http://www.w3.org/TR/2001/REC-SVG-20010904/DTD/svg10.dtd">
<svg version="1.0" xmlns="http://www.w3.org/2000/svg"
 width="500.000000pt" height="500.000000pt" viewBox="0 0 500.000000 500.000000"
 preserveAspectRatio="xMidYMid meet">
<metadata>
Created by potrace 1.14, written by Peter Selinger 2001-2017
</metadata>
<g transform="translate(0.000000,500.000000) scale(0.100000,-0.100000)"
fill="#000000" stroke="none">
<path d="M0 2500 l0 -2500 2500 0 2500 0 0 2500 0 2500 -2500 0 -2500 0 0
-2500z m3941 353 c0 -489 0 -963 0 -1055 -1 -144 -3 -174 -22 -222 -40 -109
-152 -202 -311 -258 -180 -63 -131 -61 -1390 -65 l-1148 -4 0 399 0 399 59 6
c172 18 328 150 385 325 12 37 94 358 181 714 l160 648 1043 0 1042 0 1 -887z"/>
<path d="M2261 3453 c-237 -920 -315 -1218 -337 -1288 -84 -258 -255 -454
-478 -548 -72 -30 -226 -67 -284 -67 -27 0 -32 -3 -28 -17 2 -10 10 -37 17
-60 27 -94 99 -141 250 -162 41 -5 206 -13 367 -17 l292 -7 0 380 0 380 51 7
c102 14 192 78 267 190 28 41 59 103 71 138 18 55 69 292 237 1096 24 118 44
216 44 218 0 2 -91 4 -203 4 l-202 0 -64 -247z"/>
<path d="M3191 3653 c-6 -27 -85 -392 -175 -813 -111 -518 -174 -791 -195
-845 -102 -266 -323 -420 -631 -442 l-85 -6 6 -74 c11 -137 51 -159 318 -174
97 -6 307 -9 466 -7 241 4 298 8 336 22 62 23 110 64 142 125 57 104 57 94 57
1224 l0 1037 -114 0 -114 0 -11 -47z"/>
</g>
</svg>
